<?xml version="1.0" encoding="UTF-8"?>
<svg width="238px" height="61px" viewBox="0 0 238 61" version="1.1" xmlns="http://www.w3.org/2000/svg" xmlns:xlink="http://www.w3.org/1999/xlink">
    <!-- Generator: Sketch 43.1 (39012) - http://www.bohemiancoding.com/sketch -->
    <title>Group 2</title>
    <desc>Created with Sketch.</desc>
    <defs></defs>
    <g id="Page-1" stroke="none" stroke-width="1" fill="none" fill-rule="evenodd">
        <g id="Bean-logo-copy" transform="translate(-281.000000, 0.000000)">
            <g id="Group-2" transform="translate(280.000000, 0.000000)">
                <path d="M96.4878,48.8164 C91.6718,48.8164 89.2218,45.0684 89.2218,40.8484 C89.2218,36.7574 91.6718,32.4894 96.4878,32.4894 C101.5638,32.4894 104.7098,36.6284 104.7098,40.7834 C104.7098,45.0034 101.5638,48.8164 96.4878,48.8164 L96.4878,48.8164 Z M98.9998,24.0004 C94.2498,24.0004 90.8218,25.8574 88.9998,28.0004 L88.9998,8.0004 L79.0048,7.9944 L78.9998,35.5504 L78.9998,38.6114 C78.9998,54.8654 92.1998,58.0904 96.4878,58.0004 C109.0758,57.7324 115.0038,49.6774 115.0038,40.6524 C115.0038,31.6284 108.4358,24.0004 98.9998,24.0004 L98.9998,24.0004 Z M131.9998,38.0004 C132.2538,34.7284 134.9968,31.0004 138.9998,31.0004 C143.1298,31.0004 145.9998,34.6644 145.9998,38.0004 L131.9998,38.0004 Z M139.0818,23.9954 C129.4888,23.9954 121.9998,30.5444 121.9998,41.0004 C121.9998,51.7764 129.8698,57.9924 139.4008,57.9924 C145.8168,57.9924 150.9608,55.1464 153.9458,50.7844 L146.5158,46.5744 C145.1178,48.4994 142.8308,49.9104 139.5278,49.9104 C135.7788,49.9104 132.3178,47.5274 131.9998,44.0004 L154.9998,44.0004 C155.0638,43.2304 154.9658,42.2124 154.9658,41.3784 C154.9658,30.4734 148.4218,23.9954 139.0818,23.9954 L139.0818,23.9954 Z M180.5198,49.7604 C175.4448,49.7604 172.2978,45.5844 172.2978,41.3904 C172.2978,37.1304 175.4448,33.2824 180.5198,33.2824 C185.3358,33.2824 187.7848,37.0654 187.7848,41.3244 C187.7848,45.4534 185.3358,49.7604 180.5198,49.7604 L180.5198,49.7604 Z M197.9998,47.0004 L197.9998,42.0004 C197.9998,29.8224 188.9468,24.0134 180.5198,24.0134 C167.9288,24.0144 162.0038,32.4134 162.0038,41.5214 C162.0038,50.6304 167.9978,58.0004 177.4338,58.0004 C182.1848,58.0004 186.1778,56.1624 187.9998,54.0004 L187.9998,58.0004 L198.0028,58.0054 L197.9998,48.0004 L197.9998,47.0004 Z M226.5358,24.9874 C222.1858,24.9874 218.4498,27.1624 216.9998,30.0004 L216.9998,26.0004 L206.9958,26.0344 L206.9908,58.0004 L216.9998,58.0004 L216.9998,40.0004 C216.9998,36.3244 219.3428,34.0004 222.9998,34.0004 C226.7198,34.0004 228.9998,36.4534 228.9998,40.0004 L228.9998,58.0004 L238.0118,58.0004 L238.0118,38.1404 C238.0118,31.6924 234.9848,24.9874 226.5358,24.9874 L226.5358,24.9874 Z" id="Fill-33" fill="#388CE0"></path>
                <g id="Group">
                    <path d="M52.8208,1.9434 C38.2338,-2.7806 34.5928,10.1754 24.9998,21.0004 C16.6948,29.1074 -6.1002,33.3114 3.0928,51.7434 C10.9408,67.2314 37.8558,61.4744 50.5358,47.7614 C64.5198,33.7484 68.6468,6.3954 52.8208,1.9434 L52.8208,1.9434 Z" id="Path" fill="#388CE0"></path>
                    <path d="M38.7508,22.6594 C34.1098,27.4654 26.7998,30.7474 25.9948,27.9994 C25.7568,26.7084 27.4198,28.2054 34.3388,20.9434 C41.3418,12.9784 37.7058,10.8274 41.5388,10.0984 C43.1058,9.7484 51.2548,9.6974 38.7508,22.6594 L38.7508,22.6594 Z" id="Path" fill="#FFFFFF"></path>
                </g>
            </g>
        </g>
    </g>
</svg>